<svg width="50" height="47" viewBox="0 0 50 47" fill="none" xmlns="http://www.w3.org/2000/svg">
<rect x="20.9004" y="20.2573" width="2.57235" height="2.57235" rx="1.28617" fill="#001391"/>
<rect x="24.7588" y="20.2573" width="2.57235" height="2.57235" rx="1.28617" fill="#001391"/>
<rect x="24.7588" y="23.4729" width="2.57235" height="2.57235" rx="1.28617" fill="#001391"/>
<rect x="20.9004" y="23.4729" width="2.57235" height="2.57235" rx="1.28617" fill="#001391"/>
<rect x="17.7729" y="26.8054" width="12.7171" height="5.70966" rx="2.85483" transform="rotate(46 17.7729 26.8054)" fill="#1030CC"/>
<rect x="18.9702" y="35.5742" width="37.8044" height="5.70966" rx="2.85483" transform="rotate(-45 18.9702 35.5742)" fill="url(#paint0_linear_641_183)"/>
<rect x="25.2969" y="6.43091" width="12.7171" height="5.70966" rx="2.85483" transform="rotate(46 25.2969 6.43091)" fill="#1B76FB"/>
<rect x="9.32471" y="22.1973" width="22.297" height="5.70966" rx="2.85483" transform="rotate(-45 9.32471 22.1973)" fill="url(#paint1_linear_641_183)"/>
<ellipse cx="46.3022" cy="12.2187" rx="3.69775" ry="3.37621" fill="#106BFF"/>
<ellipse cx="30.8683" cy="15.9165" rx="3.21543" ry="3.69775" fill="url(#paint2_linear_641_183)"/>
<path d="M37.5096 8.91481C38.6251 7.78372 38.6353 5.94929 37.3892 4.96386C33.9483 2.24283 29.8015 0.550525 25.4203 0.113027C20.09 -0.419257 14.7425 0.93882 10.289 3.95586C5.83558 6.9729 2.55168 11.4622 0.996879 16.6589C-0.557924 21.8556 -0.287429 27.4381 1.76228 32.4553C3.81198 37.4724 7.51407 41.6138 12.2378 44.1737C16.9615 46.7336 22.4145 47.5538 27.6677 46.4943C32.9209 45.4349 37.6493 42.5614 41.0472 38.3636C43.8404 34.9127 45.5925 30.7424 46.1276 26.3508C46.3203 24.7691 45.0106 23.4727 43.4172 23.4727V23.4727C41.8239 23.4727 40.556 24.7727 40.2998 26.3453C39.8052 29.3801 38.5324 32.2486 36.5869 34.6523C34.0359 37.8039 30.4859 39.9611 26.542 40.7565C22.5981 41.5519 18.5041 40.9362 14.9577 39.0143C11.4114 37.0924 8.63195 33.9832 7.09311 30.2165C5.55426 26.4498 5.35118 22.2586 6.51847 18.3571C7.68577 14.4556 10.1512 11.0852 13.4947 8.82012C16.8382 6.55503 20.8529 5.53543 24.8548 5.93505C27.8792 6.23707 30.7549 7.33559 33.2066 9.09865C34.5218 10.0444 36.372 10.0682 37.5096 8.91481V8.91481Z" fill="url(#paint3_linear_641_183)"/>
<defs>
<linearGradient id="paint0_linear_641_183" x1="29.036" y1="39.1504" x2="59.6167" y2="38.3546" gradientUnits="userSpaceOnUse">
<stop stop-color="#1030CC"/>
<stop offset="1" stop-color="#248CFD"/>
</linearGradient>
<linearGradient id="paint1_linear_641_183" x1="15.2615" y1="25.7734" x2="26.0359" y2="25.4523" gradientUnits="userSpaceOnUse">
<stop stop-color="#1030CC"/>
<stop offset="1" stop-color="#1B76FB"/>
</linearGradient>
<linearGradient id="paint2_linear_641_183" x1="30.8683" y1="12.2188" x2="30.8683" y2="19.6142" gradientUnits="userSpaceOnUse">
<stop offset="0.517241" stop-color="#0D45E4"/>
<stop offset="1" stop-color="#1666FB"/>
</linearGradient>
<linearGradient id="paint3_linear_641_183" x1="43.7299" y1="25.4019" x2="23.1511" y2="46.9453" gradientUnits="userSpaceOnUse">
<stop offset="0.246942" stop-color="#2286FE"/>
<stop offset="1" stop-color="#1B39CA"/>
</linearGradient>
</defs>
</svg>
