<svg width="182" height="45" viewBox="0 0 182 45" fill="none" xmlns="http://www.w3.org/2000/svg">
<path d="M40.848 25V8.248H48.768C49.552 8.248 50.256 8.384 50.88 8.656C51.504 8.912 52.032 9.272 52.464 9.736C52.912 10.2 53.256 10.768 53.496 11.44C53.736 12.096 53.856 12.816 53.856 13.6C53.856 14.4 53.736 15.128 53.496 15.784C53.256 16.44 52.912 17 52.464 17.464C52.032 17.928 51.504 18.296 50.88 18.568C50.256 18.824 49.552 18.952 48.768 18.952H44.496V25H40.848ZM44.496 15.784H48.336C48.88 15.784 49.304 15.648 49.608 15.376C49.928 15.088 50.088 14.672 50.088 14.128V13.072C50.088 12.528 49.928 12.12 49.608 11.848C49.304 11.56 48.88 11.416 48.336 11.416H44.496V15.784ZM54.4916 25V12.4H58.0436V15.136H58.1636C58.2276 14.784 58.3396 14.448 58.4996 14.128C58.6596 13.792 58.8676 13.496 59.1236 13.24C59.3956 12.984 59.7156 12.784 60.0836 12.64C60.4516 12.48 60.8836 12.4 61.3796 12.4H62.0036V15.712H61.1156C60.0756 15.712 59.2996 15.848 58.7876 16.12C58.2916 16.392 58.0436 16.896 58.0436 17.632V25H54.4916ZM67.6536 25.288C66.6936 25.288 65.8376 25.136 65.0856 24.832C64.3336 24.512 63.6936 24.072 63.1656 23.512C62.6536 22.936 62.2616 22.24 61.9896 21.424C61.7336 20.608 61.6056 19.696 61.6056 18.688C61.6056 17.696 61.7336 16.8 61.9896 16C62.2456 15.184 62.6216 14.488 63.1176 13.912C63.6296 13.336 64.2536 12.896 64.9896 12.592C65.7256 12.272 66.5656 12.112 67.5096 12.112C68.5496 12.112 69.4376 12.288 70.1736 12.64C70.9256 12.992 71.5336 13.464 71.9976 14.056C72.4776 14.648 72.8216 15.336 73.0296 16.12C73.2536 16.888 73.3656 17.696 73.3656 18.544V19.6H65.2776V19.792C65.2776 20.624 65.5016 21.288 65.9496 21.784C66.3976 22.264 67.1016 22.504 68.0616 22.504C68.7976 22.504 69.3976 22.36 69.8616 22.072C70.3256 21.768 70.7576 21.408 71.1576 20.992L72.9336 23.2C72.3736 23.856 71.6376 24.368 70.7256 24.736C69.8296 25.104 68.8056 25.288 67.6536 25.288ZM67.5816 14.728C66.8616 14.728 66.2936 14.968 65.8776 15.448C65.4776 15.912 65.2776 16.536 65.2776 17.32V17.512H69.6936V17.296C69.6936 16.528 69.5176 15.912 69.1656 15.448C68.8296 14.968 68.3016 14.728 67.5816 14.728ZM79.5757 25.288C78.1037 25.288 76.8557 25.04 75.8317 24.544C74.8077 24.032 73.9357 23.376 73.2157 22.576L75.6157 20.152C76.7517 21.432 78.1517 22.072 79.8157 22.072C80.7117 22.072 81.3757 21.888 81.8077 21.52C82.2397 21.152 82.4557 20.664 82.4557 20.056C82.4557 19.592 82.3277 19.208 82.0717 18.904C81.8157 18.584 81.2957 18.368 80.5117 18.256L78.8557 18.04C77.0797 17.816 75.7757 17.28 74.9437 16.432C74.1277 15.584 73.7197 14.456 73.7197 13.048C73.7197 12.296 73.8637 11.608 74.1517 10.984C74.4397 10.36 74.8477 9.824 75.3757 9.376C75.9197 8.928 76.5757 8.584 77.3437 8.344C78.1277 8.088 79.0157 7.96 80.0077 7.96C81.2717 7.96 82.3837 8.16 83.3437 8.56C84.3037 8.96 85.1277 9.544 85.8157 10.312L83.3917 12.76C82.9917 12.296 82.5037 11.92 81.9277 11.632C81.3677 11.328 80.6557 11.176 79.7917 11.176C78.9757 11.176 78.3677 11.32 77.9677 11.608C77.5677 11.896 77.3677 12.296 77.3677 12.808C77.3677 13.384 77.5197 13.8 77.8237 14.056C78.1437 14.312 78.6557 14.496 79.3597 14.608L81.0157 14.872C82.7437 15.144 84.0237 15.68 84.8557 16.48C85.6877 17.264 86.1038 18.384 86.1038 19.84C86.1038 20.64 85.9598 21.376 85.6718 22.048C85.3837 22.72 84.9597 23.296 84.3997 23.776C83.8557 24.256 83.1757 24.632 82.3597 24.904C81.5437 25.16 80.6157 25.288 79.5757 25.288ZM91.5551 25C90.3231 25 89.3871 24.688 88.7471 24.064C88.1231 23.44 87.8111 22.528 87.8111 21.328V15.16H86.0351V12.4H86.9231C87.4031 12.4 87.7311 12.288 87.9071 12.064C88.0831 11.824 88.1711 11.488 88.1711 11.056V8.992H91.3631V12.4H93.8591V15.16H91.3631V22.24H93.6671V25H91.5551ZM103.959 25C103.319 25 102.783 24.8 102.351 24.4C101.935 24 101.671 23.464 101.559 22.792H101.415C101.223 23.608 100.799 24.232 100.143 24.664C99.4866 25.08 98.6786 25.288 97.7186 25.288C96.4546 25.288 95.4866 24.952 94.8146 24.28C94.1426 23.608 93.8066 22.72 93.8066 21.616C93.8066 20.288 94.2866 19.304 95.2466 18.664C96.2226 18.008 97.5426 17.68 99.2066 17.68H101.199V16.888C101.199 16.28 101.039 15.8 100.719 15.448C100.399 15.08 99.8626 14.896 99.1106 14.896C98.4066 14.896 97.8466 15.048 97.4306 15.352C97.0146 15.656 96.6706 16 96.3986 16.384L94.2866 14.512C94.7986 13.76 95.4386 13.176 96.2066 12.76C96.9906 12.328 98.0466 12.112 99.3746 12.112C101.167 12.112 102.511 12.504 103.407 13.288C104.303 14.072 104.751 15.216 104.751 16.72V22.24H105.927V25H103.959ZM99.0386 22.816C99.6306 22.816 100.135 22.688 100.551 22.432C100.983 22.176 101.199 21.76 101.199 21.184V19.696H99.4706C98.0786 19.696 97.3826 20.168 97.3826 21.112V21.472C97.3826 21.936 97.5266 22.28 97.8146 22.504C98.1026 22.712 98.5106 22.816 99.0386 22.816ZM114.124 12.4H117.436L112.588 26.944C112.268 27.92 111.812 28.64 111.22 29.104C110.644 29.568 109.812 29.8 108.724 29.8H106.516V27.04H108.892L109.324 25.648L104.908 12.4H108.436L110.284 18.28L111.196 21.928H111.34L112.276 18.28L114.124 12.4ZM124.52 25.288C123.384 25.288 122.36 25.112 121.448 24.76C120.536 24.392 119.76 23.856 119.12 23.152C118.48 22.432 117.984 21.544 117.632 20.488C117.28 19.416 117.104 18.168 117.104 16.744C117.104 15.336 117.28 14.088 117.632 13C117.984 11.896 118.48 10.976 119.12 10.24C119.76 9.488 120.536 8.92 121.448 8.536C122.36 8.152 123.384 7.96 124.52 7.96C126.072 7.96 127.352 8.28 128.36 8.92C129.368 9.544 130.176 10.536 130.784 11.896L127.64 13.528C127.416 12.824 127.064 12.264 126.584 11.848C126.12 11.416 125.432 11.2 124.52 11.2C123.448 11.2 122.584 11.552 121.928 12.256C121.288 12.944 120.968 13.952 120.968 15.28V17.968C120.968 19.296 121.288 20.312 121.928 21.016C122.584 21.704 123.448 22.048 124.52 22.048C125.416 22.048 126.128 21.808 126.656 21.328C127.2 20.832 127.6 20.24 127.856 19.552L130.832 21.28C130.208 22.56 129.384 23.552 128.36 24.256C127.352 24.944 126.072 25.288 124.52 25.288ZM131.513 7.24H135.065V14.536H135.209C135.433 13.88 135.825 13.312 136.385 12.832C136.945 12.352 137.721 12.112 138.713 12.112C140.009 12.112 140.985 12.544 141.641 13.408C142.313 14.272 142.649 15.504 142.649 17.104V25H139.097V17.392C139.097 16.576 138.969 15.976 138.713 15.592C138.457 15.192 138.001 14.992 137.345 14.992C137.057 14.992 136.777 15.032 136.505 15.112C136.233 15.176 135.985 15.288 135.761 15.448C135.553 15.608 135.385 15.808 135.257 16.048C135.129 16.272 135.065 16.536 135.065 16.84V25H131.513V7.24ZM149.386 25.288C148.426 25.288 147.57 25.136 146.818 24.832C146.066 24.512 145.426 24.072 144.898 23.512C144.386 22.936 143.994 22.24 143.722 21.424C143.466 20.608 143.338 19.696 143.338 18.688C143.338 17.696 143.466 16.8 143.722 16C143.978 15.184 144.354 14.488 144.85 13.912C145.362 13.336 145.986 12.896 146.722 12.592C147.458 12.272 148.298 12.112 149.242 12.112C150.282 12.112 151.17 12.288 151.906 12.64C152.658 12.992 153.266 13.464 153.73 14.056C154.21 14.648 154.554 15.336 154.762 16.12C154.986 16.888 155.098 17.696 155.098 18.544V19.6H147.01V19.792C147.01 20.624 147.234 21.288 147.682 21.784C148.13 22.264 148.834 22.504 149.794 22.504C150.53 22.504 151.13 22.36 151.594 22.072C152.058 21.768 152.49 21.408 152.89 20.992L154.666 23.2C154.106 23.856 153.37 24.368 152.458 24.736C151.562 25.104 150.538 25.288 149.386 25.288ZM149.314 14.728C148.594 14.728 148.026 14.968 147.61 15.448C147.21 15.912 147.01 16.536 147.01 17.32V17.512H151.426V17.296C151.426 16.528 151.25 15.912 150.898 15.448C150.562 14.968 150.034 14.728 149.314 14.728ZM161.014 25.288C160.07 25.288 159.23 25.136 158.494 24.832C157.758 24.512 157.142 24.072 156.646 23.512C156.15 22.936 155.774 22.24 155.518 21.424C155.262 20.608 155.134 19.696 155.134 18.688C155.134 17.68 155.262 16.776 155.518 15.976C155.774 15.16 156.15 14.464 156.646 13.888C157.142 13.312 157.758 12.872 158.494 12.568C159.23 12.264 160.07 12.112 161.014 12.112C162.294 12.112 163.358 12.4 164.206 12.976C165.07 13.552 165.686 14.36 166.054 15.4L163.174 16.648C163.062 16.168 162.83 15.76 162.478 15.424C162.126 15.088 161.638 14.92 161.014 14.92C160.294 14.92 159.75 15.16 159.382 15.64C159.014 16.104 158.83 16.736 158.83 17.536V19.888C158.83 20.688 159.014 21.32 159.382 21.784C159.75 22.248 160.294 22.48 161.014 22.48C161.654 22.48 162.158 22.312 162.526 21.976C162.91 21.624 163.19 21.168 163.366 20.608L166.126 21.808C165.71 23.008 165.062 23.888 164.182 24.448C163.318 25.008 162.262 25.288 161.014 25.288ZM166.645 7.24H170.197V17.728H170.341L171.901 15.4L174.421 12.4H178.357L174.157 17.224L178.837 25H174.613L171.781 19.672L170.197 21.448V25H166.645V7.24Z" fill="#0E1336"/>
<path d="M57.134 42V33.084H59.03V42H57.134ZM63.1299 42.096C62.7219 42.096 62.3839 42.03 62.1159 41.898C61.8519 41.762 61.6539 41.548 61.5219 41.256C61.3939 40.964 61.3299 40.578 61.3299 40.098V36.57H60.5199V35.592C60.8159 35.508 61.0519 35.428 61.2279 35.352C61.4079 35.276 61.5379 35.144 61.6179 34.956C61.6579 34.864 61.6999 34.756 61.7439 34.632C61.7919 34.508 61.8419 34.374 61.8939 34.23C61.9459 34.086 61.9999 33.94 62.0559 33.792H63.1599V35.316H64.9539V36.57H63.1599V39.324C63.1599 39.748 63.1819 40.058 63.2259 40.254C63.2699 40.446 63.3459 40.57 63.4539 40.626C63.5619 40.678 63.7179 40.704 63.9219 40.704C64.0259 40.704 64.1459 40.692 64.2819 40.668C64.4179 40.64 64.5479 40.606 64.6719 40.566C64.7959 40.526 64.8919 40.484 64.9599 40.44L65.1999 41.466C65.0919 41.562 64.9299 41.66 64.7139 41.76C64.4979 41.856 64.2519 41.936 63.9759 42C63.6999 42.064 63.4179 42.096 63.1299 42.096ZM67.0699 36.534L66.3019 36.048V35.874C66.3779 35.786 66.4439 35.66 66.4999 35.496C66.5599 35.332 66.6059 35.152 66.6379 34.956C66.6699 34.756 66.6859 34.556 66.6859 34.356C66.6859 34.004 66.6259 33.706 66.5059 33.462C66.3859 33.218 66.2679 33.062 66.1519 32.994V32.574L67.2019 31.794C67.3739 31.862 67.5379 31.984 67.6939 32.16C67.8539 32.336 67.9819 32.564 68.0779 32.844C68.1779 33.12 68.2279 33.448 68.2279 33.828C68.2279 34.348 68.1559 34.792 68.0119 35.16C67.8679 35.528 67.7039 35.826 67.5199 36.054C67.3399 36.282 67.1899 36.442 67.0699 36.534ZM69.4781 41.574L69.6821 40.284C69.7461 40.336 69.8761 40.404 70.0721 40.488C70.2681 40.572 70.5021 40.65 70.7741 40.722C71.0461 40.79 71.3261 40.824 71.6141 40.824C71.9781 40.828 72.2461 40.78 72.4181 40.68C72.5901 40.576 72.6761 40.422 72.6761 40.218C72.6761 40.078 72.6181 39.956 72.5021 39.852C72.3901 39.748 72.2361 39.652 72.0401 39.564C71.8441 39.472 71.6261 39.378 71.3861 39.282C70.9541 39.11 70.5961 38.922 70.3121 38.718C70.0321 38.514 69.8221 38.282 69.6821 38.022C69.5461 37.758 69.4801 37.45 69.4841 37.098C69.4881 36.682 69.6081 36.336 69.8441 36.06C70.0841 35.784 70.4021 35.578 70.7981 35.442C71.1981 35.302 71.6401 35.232 72.1241 35.232C72.6161 35.232 73.0341 35.278 73.3781 35.37C73.7261 35.458 73.9641 35.54 74.0921 35.616L73.8941 36.93C73.8181 36.866 73.6981 36.798 73.5341 36.726C73.3701 36.654 73.1841 36.596 72.9761 36.552C72.7721 36.504 72.5641 36.48 72.3521 36.48C71.9641 36.48 71.6801 36.528 71.5001 36.624C71.3241 36.716 71.2361 36.85 71.2361 37.026C71.2321 37.254 71.3201 37.424 71.5001 37.536C71.6841 37.644 71.9381 37.766 72.2621 37.902C72.7421 38.098 73.1441 38.294 73.4681 38.49C73.7961 38.682 74.0421 38.904 74.2061 39.156C74.3741 39.404 74.4581 39.708 74.4581 40.068C74.4581 40.732 74.2201 41.236 73.7441 41.58C73.2681 41.924 72.6261 42.096 71.8181 42.096C71.4781 42.096 71.1501 42.068 70.8341 42.012C70.5221 41.96 70.2461 41.894 70.0061 41.814C69.7701 41.734 69.5941 41.654 69.4781 41.574ZM80.0166 42.096C79.6086 42.096 79.2706 42.03 79.0026 41.898C78.7386 41.762 78.5406 41.548 78.4086 41.256C78.2806 40.964 78.2166 40.578 78.2166 40.098V36.57H77.4066V35.592C77.7026 35.508 77.9386 35.428 78.1146 35.352C78.2946 35.276 78.4246 35.144 78.5046 34.956C78.5446 34.864 78.5866 34.756 78.6306 34.632C78.6786 34.508 78.7286 34.374 78.7806 34.23C78.8326 34.086 78.8866 33.94 78.9426 33.792H80.0466V35.316H81.8406V36.57H80.0466V39.324C80.0466 39.748 80.0686 40.058 80.1126 40.254C80.1566 40.446 80.2326 40.57 80.3406 40.626C80.4486 40.678 80.6046 40.704 80.8086 40.704C80.9126 40.704 81.0326 40.692 81.1686 40.668C81.3046 40.64 81.4346 40.606 81.5586 40.566C81.6826 40.526 81.7786 40.484 81.8466 40.44L82.0866 41.466C81.9786 41.562 81.8166 41.66 81.6006 41.76C81.3846 41.856 81.1386 41.936 80.8626 42C80.5866 42.064 80.3046 42.096 80.0166 42.096ZM83.3626 42V35.322H85.1926V42H83.3626ZM84.1846 34.356C83.8886 34.356 83.6386 34.264 83.4346 34.08C83.2306 33.896 83.1286 33.656 83.1286 33.36C83.1286 33.16 83.1826 32.978 83.2906 32.814C83.4026 32.646 83.5466 32.512 83.7226 32.412C83.9026 32.312 84.0946 32.262 84.2986 32.262C84.6266 32.262 84.8826 32.356 85.0666 32.544C85.2546 32.728 85.3486 32.966 85.3486 33.258C85.3486 33.562 85.2326 33.822 85.0006 34.038C84.7726 34.25 84.5006 34.356 84.1846 34.356ZM87.1001 42V35.322H88.7621L88.7921 36.036C88.9481 35.916 89.1441 35.794 89.3801 35.67C89.6201 35.546 89.8801 35.442 90.1601 35.358C90.4401 35.27 90.7261 35.224 91.0181 35.22C91.4781 35.208 91.8561 35.282 92.1521 35.442C92.4481 35.602 92.6681 35.874 92.8121 36.258C92.9561 36.638 93.0281 37.15 93.0281 37.794V42H91.2041V38.064C91.2041 37.72 91.1761 37.448 91.1201 37.248C91.0641 37.044 90.9641 36.898 90.8201 36.81C90.6801 36.722 90.4801 36.682 90.2201 36.69C90.0441 36.69 89.8341 36.732 89.5901 36.816C89.3461 36.9 89.1241 37.024 88.9241 37.188V42H87.1001ZM92.9501 37.218L92.6141 36.084C92.7421 35.972 92.9241 35.85 93.1601 35.718C93.4001 35.582 93.6761 35.466 93.9881 35.37C94.3001 35.27 94.6301 35.22 94.9781 35.22C95.4381 35.216 95.8241 35.292 96.1361 35.448C96.4481 35.604 96.6841 35.872 96.8441 36.252C97.0041 36.632 97.0841 37.148 97.0841 37.8V42H95.2481V38.058C95.2481 37.714 95.2201 37.442 95.1641 37.242C95.1121 37.038 95.0141 36.894 94.8701 36.81C94.7301 36.722 94.5281 36.682 94.2641 36.69C94.0361 36.69 93.8001 36.746 93.5561 36.858C93.3161 36.966 93.1141 37.086 92.9501 37.218ZM101.667 42.096C100.639 42.096 99.8514 41.79 99.3034 41.178C98.7554 40.566 98.4814 39.72 98.4814 38.64C98.4814 37.992 98.6054 37.412 98.8534 36.9C99.1054 36.388 99.4694 35.984 99.9454 35.688C100.421 35.388 101.003 35.236 101.691 35.232C102.039 35.228 102.371 35.272 102.687 35.364C103.003 35.456 103.285 35.606 103.533 35.814C103.781 36.018 103.979 36.29 104.127 36.63C104.279 36.966 104.357 37.378 104.361 37.866C104.361 38.11 104.357 38.336 104.349 38.544C104.341 38.752 104.323 38.93 104.295 39.078H99.4654L99.5854 38.088H102.657C102.677 37.764 102.659 37.48 102.603 37.236C102.551 36.988 102.447 36.796 102.291 36.66C102.135 36.52 101.915 36.45 101.631 36.45C101.355 36.45 101.113 36.526 100.905 36.678C100.701 36.83 100.543 37.092 100.431 37.464C100.323 37.832 100.277 38.34 100.293 38.988C100.309 39.424 100.393 39.774 100.545 40.038C100.701 40.298 100.911 40.486 101.175 40.602C101.443 40.714 101.753 40.77 102.105 40.77C102.297 40.77 102.507 40.754 102.735 40.722C102.963 40.69 103.179 40.648 103.383 40.596C103.587 40.54 103.743 40.484 103.851 40.428L104.157 41.424C104.009 41.544 103.805 41.656 103.545 41.76C103.289 41.86 102.997 41.94 102.669 42C102.345 42.064 102.011 42.096 101.667 42.096ZM105.971 38.778V37.374H110.951V38.778H105.971ZM112.591 41.574L112.795 40.284C112.859 40.336 112.989 40.404 113.185 40.488C113.381 40.572 113.615 40.65 113.887 40.722C114.159 40.79 114.439 40.824 114.727 40.824C115.091 40.828 115.359 40.78 115.531 40.68C115.703 40.576 115.789 40.422 115.789 40.218C115.789 40.078 115.731 39.956 115.615 39.852C115.503 39.748 115.349 39.652 115.153 39.564C114.957 39.472 114.739 39.378 114.499 39.282C114.067 39.11 113.709 38.922 113.425 38.718C113.145 38.514 112.935 38.282 112.795 38.022C112.659 37.758 112.593 37.45 112.597 37.098C112.601 36.682 112.721 36.336 112.957 36.06C113.197 35.784 113.515 35.578 113.911 35.442C114.311 35.302 114.753 35.232 115.237 35.232C115.729 35.232 116.147 35.278 116.491 35.37C116.839 35.458 117.077 35.54 117.205 35.616L117.007 36.93C116.931 36.866 116.811 36.798 116.647 36.726C116.483 36.654 116.297 36.596 116.089 36.552C115.885 36.504 115.677 36.48 115.465 36.48C115.077 36.48 114.793 36.528 114.613 36.624C114.437 36.716 114.349 36.85 114.349 37.026C114.345 37.254 114.433 37.424 114.613 37.536C114.797 37.644 115.051 37.766 115.375 37.902C115.855 38.098 116.257 38.294 116.581 38.49C116.909 38.682 117.155 38.904 117.319 39.156C117.487 39.404 117.571 39.708 117.571 40.068C117.571 40.732 117.333 41.236 116.857 41.58C116.381 41.924 115.739 42.096 114.931 42.096C114.591 42.096 114.263 42.068 113.947 42.012C113.635 41.96 113.359 41.894 113.119 41.814C112.883 41.734 112.707 41.654 112.591 41.574ZM120.985 42.096C120.577 42.096 120.239 42.03 119.971 41.898C119.707 41.762 119.509 41.548 119.377 41.256C119.249 40.964 119.185 40.578 119.185 40.098V36.57H118.375V35.592C118.671 35.508 118.907 35.428 119.083 35.352C119.263 35.276 119.393 35.144 119.473 34.956C119.513 34.864 119.555 34.756 119.599 34.632C119.647 34.508 119.697 34.374 119.749 34.23C119.801 34.086 119.855 33.94 119.911 33.792H121.015V35.316H122.809V36.57H121.015V39.324C121.015 39.748 121.037 40.058 121.081 40.254C121.125 40.446 121.201 40.57 121.309 40.626C121.417 40.678 121.573 40.704 121.777 40.704C121.881 40.704 122.001 40.692 122.137 40.668C122.273 40.64 122.403 40.606 122.527 40.566C122.651 40.526 122.747 40.484 122.815 40.44L123.055 41.466C122.947 41.562 122.785 41.66 122.569 41.76C122.353 41.856 122.107 41.936 121.831 42C121.555 42.064 121.273 42.096 120.985 42.096ZM126.011 42.096C125.587 42.096 125.215 42.01 124.895 41.838C124.575 41.666 124.325 41.426 124.145 41.118C123.969 40.81 123.881 40.452 123.881 40.044C123.881 39.636 123.991 39.286 124.211 38.994C124.435 38.702 124.737 38.474 125.117 38.31C125.377 38.202 125.661 38.118 125.969 38.058C126.281 37.998 126.591 37.956 126.899 37.932C127.211 37.908 127.501 37.896 127.769 37.896L128.075 38.274L127.769 38.862C127.625 38.862 127.463 38.872 127.283 38.892C127.103 38.912 126.929 38.942 126.761 38.982C126.597 39.018 126.459 39.06 126.347 39.108C126.191 39.18 126.051 39.276 125.927 39.396C125.807 39.516 125.747 39.7 125.747 39.948C125.747 40.272 125.837 40.512 126.017 40.668C126.197 40.82 126.429 40.896 126.713 40.896C126.861 40.896 127.007 40.876 127.151 40.836C127.299 40.796 127.429 40.75 127.541 40.698C127.653 40.642 127.729 40.59 127.769 40.542L128.087 40.92L127.865 41.436C127.685 41.596 127.437 41.746 127.121 41.886C126.809 42.026 126.439 42.096 126.011 42.096ZM129.599 42H127.865V41.004H127.769V37.404C127.769 37.064 127.679 36.842 127.499 36.738C127.319 36.63 127.061 36.576 126.725 36.576C126.473 36.576 126.209 36.598 125.933 36.642C125.661 36.686 125.403 36.744 125.159 36.816C124.915 36.888 124.711 36.966 124.547 37.05L124.151 35.898C124.287 35.818 124.499 35.724 124.787 35.616C125.075 35.508 125.405 35.414 125.777 35.334C126.149 35.25 126.523 35.208 126.899 35.208C127.515 35.208 128.021 35.28 128.417 35.424C128.817 35.568 129.113 35.812 129.305 36.156C129.501 36.5 129.599 36.976 129.599 37.584V42ZM131.397 42V35.322H133.059L133.089 36.036C133.245 35.916 133.441 35.794 133.677 35.67C133.917 35.546 134.177 35.442 134.457 35.358C134.737 35.27 135.023 35.224 135.315 35.22C135.775 35.208 136.153 35.282 136.449 35.442C136.745 35.602 136.965 35.874 137.109 36.258C137.253 36.638 137.325 37.15 137.325 37.794V42H135.501V38.064C135.501 37.72 135.473 37.448 135.417 37.248C135.361 37.044 135.261 36.898 135.117 36.81C134.977 36.722 134.777 36.682 134.517 36.69C134.341 36.69 134.131 36.732 133.887 36.816C133.643 36.9 133.421 37.024 133.221 37.188V42H131.397ZM137.247 37.218L136.911 36.084C137.039 35.972 137.221 35.85 137.457 35.718C137.697 35.582 137.973 35.466 138.285 35.37C138.597 35.27 138.927 35.22 139.275 35.22C139.735 35.216 140.121 35.292 140.433 35.448C140.745 35.604 140.981 35.872 141.141 36.252C141.301 36.632 141.381 37.148 141.381 37.8V42H139.545V38.058C139.545 37.714 139.517 37.442 139.461 37.242C139.409 37.038 139.311 36.894 139.167 36.81C139.027 36.722 138.825 36.682 138.561 36.69C138.333 36.69 138.097 36.746 137.853 36.858C137.613 36.966 137.411 37.086 137.247 37.218ZM143.192 44.964V35.316H144.902V36.132L145.022 36.276V41.268L145.004 41.736L145.022 42.816V44.964H143.192ZM146.102 42.096C145.698 42.096 145.366 42.05 145.106 41.958C144.846 41.862 144.678 41.786 144.602 41.73L145.022 40.566C145.122 40.662 145.26 40.732 145.436 40.776C145.616 40.816 145.82 40.836 146.048 40.836C146.344 40.836 146.606 40.748 146.834 40.572C147.062 40.396 147.242 40.14 147.374 39.804C147.51 39.464 147.58 39.05 147.584 38.562C147.588 37.85 147.472 37.346 147.236 37.05C147 36.754 146.674 36.606 146.258 36.606C145.998 36.606 145.758 36.652 145.538 36.744C145.322 36.836 145.15 36.932 145.022 37.032L144.8 36.102C144.892 36.002 145.02 35.884 145.184 35.748C145.352 35.612 145.57 35.492 145.838 35.388C146.106 35.284 146.44 35.232 146.84 35.232C147.312 35.232 147.75 35.348 148.154 35.58C148.558 35.808 148.882 36.158 149.126 36.63C149.37 37.098 149.492 37.692 149.492 38.412C149.492 39.156 149.352 39.804 149.072 40.356C148.792 40.904 148.396 41.332 147.884 41.64C147.376 41.944 146.782 42.096 146.102 42.096ZM153.746 42.096C152.718 42.096 151.93 41.79 151.382 41.178C150.834 40.566 150.56 39.72 150.56 38.64C150.56 37.992 150.684 37.412 150.932 36.9C151.184 36.388 151.548 35.984 152.024 35.688C152.5 35.388 153.082 35.236 153.77 35.232C154.118 35.228 154.45 35.272 154.766 35.364C155.082 35.456 155.364 35.606 155.612 35.814C155.86 36.018 156.058 36.29 156.206 36.63C156.358 36.966 156.436 37.378 156.44 37.866C156.44 38.11 156.436 38.336 156.428 38.544C156.42 38.752 156.402 38.93 156.374 39.078H151.544L151.664 38.088H154.736C154.756 37.764 154.738 37.48 154.682 37.236C154.63 36.988 154.526 36.796 154.37 36.66C154.214 36.52 153.994 36.45 153.71 36.45C153.434 36.45 153.192 36.526 152.984 36.678C152.78 36.83 152.622 37.092 152.51 37.464C152.402 37.832 152.356 38.34 152.372 38.988C152.388 39.424 152.472 39.774 152.624 40.038C152.78 40.298 152.99 40.486 153.254 40.602C153.522 40.714 153.832 40.77 154.184 40.77C154.376 40.77 154.586 40.754 154.814 40.722C155.042 40.69 155.258 40.648 155.462 40.596C155.666 40.54 155.822 40.484 155.93 40.428L156.236 41.424C156.088 41.544 155.884 41.656 155.624 41.76C155.368 41.86 155.076 41.94 154.748 42C154.424 42.064 154.09 42.096 153.746 42.096ZM162.093 42V41.166L161.961 41.076V36.546L162.009 36.504L161.961 34.812V32.25H163.773V42H162.093ZM160.125 42.096C159.653 42.096 159.217 41.98 158.817 41.748C158.421 41.512 158.101 41.158 157.857 40.686C157.613 40.214 157.491 39.616 157.491 38.892C157.491 38.152 157.631 37.508 157.911 36.96C158.191 36.408 158.583 35.982 159.087 35.682C159.591 35.382 160.183 35.232 160.863 35.232C161.275 35.232 161.613 35.276 161.877 35.364C162.145 35.452 162.317 35.526 162.393 35.586L161.967 36.744C161.867 36.66 161.725 36.602 161.541 36.57C161.357 36.534 161.147 36.516 160.911 36.516C160.623 36.516 160.363 36.6 160.131 36.768C159.903 36.932 159.721 37.182 159.585 37.518C159.453 37.85 159.387 38.266 159.387 38.766C159.379 39.458 159.493 39.954 159.729 40.254C159.969 40.554 160.297 40.704 160.713 40.704C160.969 40.704 161.209 40.66 161.433 40.572C161.661 40.484 161.839 40.394 161.967 40.302L162.189 41.214C162.097 41.314 161.965 41.434 161.793 41.574C161.621 41.71 161.399 41.832 161.127 41.94C160.855 42.044 160.521 42.096 160.125 42.096Z" fill="#0E1132"/>
<ellipse cx="18" cy="41" rx="9" ry="1" fill="url(#paint0_linear_641_111)"/>
<rect x="16.7202" y="16.2058" width="2.05788" height="2.05788" rx="1.02894" fill="#001391"/>
<rect x="19.8071" y="16.2058" width="2.05788" height="2.05788" rx="1.02894" fill="#001391"/>
<rect x="19.8071" y="18.7781" width="2.05788" height="2.05788" rx="1.02894" fill="#001391"/>
<rect x="16.7202" y="18.7781" width="2.05788" height="2.05788" rx="1.02894" fill="#001391"/>
<rect x="14.2183" y="21.4442" width="10.1737" height="4.56773" rx="2.28386" transform="rotate(46 14.2183 21.4442)" fill="#1030CC"/>
<rect x="15.1763" y="28.4594" width="30.2435" height="4.56773" rx="2.28386" transform="rotate(-45 15.1763 28.4594)" fill="url(#paint1_linear_641_111)"/>
<rect x="20.2378" y="5.14465" width="10.1737" height="4.56773" rx="2.28386" transform="rotate(46 20.2378 5.14465)" fill="#1B76FB"/>
<rect x="7.45996" y="17.7578" width="17.8376" height="4.56773" rx="2.28386" transform="rotate(-45 7.45996 17.7578)" fill="url(#paint2_linear_641_111)"/>
<ellipse cx="37.0417" cy="9.77494" rx="2.9582" ry="2.70096" fill="#106BFF"/>
<ellipse cx="24.6944" cy="12.7331" rx="2.57235" ry="2.9582" fill="url(#paint3_linear_641_111)"/>
<path d="M30.0076 7.13185C30.9001 6.22698 30.9082 4.75943 29.9113 3.97109C27.1586 1.79427 23.8412 0.44042 20.3363 0.0904216C16.072 -0.335406 11.794 0.751056 8.23124 3.16469C4.66847 5.57832 2.04135 9.16978 0.797503 13.3271C-0.44634 17.4845 -0.229943 21.9505 1.40982 25.9642C3.04958 29.9779 6.01126 33.291 9.79021 35.339C13.5692 37.3869 17.9316 38.043 22.1341 37.1955C26.3367 36.3479 30.1194 34.0491 32.8378 30.6909C35.0723 27.9302 36.474 24.5939 36.9021 21.0806C37.0563 19.8153 36.0085 18.7781 34.7338 18.7781V18.7781C33.4591 18.7781 32.4448 19.8181 32.2398 21.0762C31.8442 23.5041 30.826 25.7989 29.2695 27.7218C27.2287 30.2431 24.3888 31.9689 21.2336 32.6052C18.0785 33.2415 14.8033 32.749 11.9662 31.2114C9.12909 29.6739 6.90556 27.1866 5.67449 24.1732C4.44341 21.1598 4.28094 17.8069 5.21478 14.6857C6.14861 11.5645 8.12097 8.86816 10.7958 7.05609C13.4706 5.24402 16.6823 4.42834 19.8838 4.74804C22.3034 4.98965 24.6039 5.86847 26.5653 7.27892C27.6174 8.03555 29.0976 8.05454 30.0076 7.13185V7.13185Z" fill="url(#paint4_linear_641_111)"/>
<defs>
<linearGradient id="paint0_linear_641_111" x1="9" y1="41" x2="27" y2="41" gradientUnits="userSpaceOnUse">
<stop stop-color="#C0CDDC"/>
<stop offset="1" stop-color="#9AAFD1"/>
</linearGradient>
<linearGradient id="paint1_linear_641_111" x1="23.2289" y1="31.3203" x2="47.6934" y2="30.6837" gradientUnits="userSpaceOnUse">
<stop stop-color="#1030CC"/>
<stop offset="1" stop-color="#248CFD"/>
</linearGradient>
<linearGradient id="paint2_linear_641_111" x1="12.2094" y1="20.6187" x2="20.8289" y2="20.3618" gradientUnits="userSpaceOnUse">
<stop stop-color="#1030CC"/>
<stop offset="1" stop-color="#1B76FB"/>
</linearGradient>
<linearGradient id="paint3_linear_641_111" x1="24.6944" y1="9.7749" x2="24.6944" y2="15.6913" gradientUnits="userSpaceOnUse">
<stop offset="0.517241" stop-color="#0D45E4"/>
<stop offset="1" stop-color="#1666FB"/>
</linearGradient>
<linearGradient id="paint4_linear_641_111" x1="34.9839" y1="20.3215" x2="18.5209" y2="37.5563" gradientUnits="userSpaceOnUse">
<stop offset="0.246942" stop-color="#2286FE"/>
<stop offset="1" stop-color="#1B39CA"/>
</linearGradient>
</defs>
</svg>
